<svg width="24" height="24" viewBox="0 0 24 24" fill="none" xmlns="http://www.w3.org/2000/svg">
<path d="M11.9996 20.5002C7.59961 20.5002 4.09961 17.0002 4.09961 12.6002C4.09961 8.2002 7.59961 4.7002 11.9996 4.7002C16.3996 4.7002 19.8996 8.2002 19.8996 12.6002C19.8996 16.9002 16.3996 20.5002 11.9996 20.5002ZM11.9996 5.6002C8.19961 5.6002 5.09961 8.7002 5.09961 12.5002C5.09961 16.3002 8.19961 19.4002 11.9996 19.4002C15.7996 19.4002 18.8996 16.3002 18.8996 12.5002C18.8996 8.7002 15.7996 5.6002 11.9996 5.6002Z" fill="#2A2A2A"/>
<path d="M7.19922 13.0002C6.89922 13.0002 6.69922 12.8002 6.69922 12.5002C6.69922 9.6002 9.09922 7.2002 11.9992 7.2002C12.2992 7.2002 12.4992 7.4002 12.4992 7.7002C12.4992 8.0002 12.2992 8.3002 11.9992 8.3002C9.59922 8.3002 7.69922 10.2002 7.69922 12.6002C7.69922 12.8002 7.49922 13.0002 7.19922 13.0002Z" fill="#2A2A2A"/>
<path d="M8.7 19.6999H3.2C1.7 19.6999 0.5 18.4999 0.5 16.9999V8.0999C0.5 6.5999 1.7 5.3999 3.2 5.3999H8.8C9 5.3999 9.2 5.5999 9.3 5.7999C9.3 5.9999 9.2 6.1999 9 6.2999C6.6 7.4999 5.1 9.7999 5.1 12.4999C5.1 15.1999 6.6 17.4999 9 18.6999C9.2 18.7999 9.3 18.9999 9.3 19.2999C9.2 19.4999 9 19.6999 8.7 19.6999ZM3.2 6.3999C2.2 6.3999 1.5 7.1999 1.5 8.0999V16.9999C1.5 17.9999 2.3 18.6999 3.2 18.6999H7C5.2 17.1999 4.1 14.9999 4.1 12.5999C4.1 10.1999 5.2 7.8999 7 6.3999H3.2Z" fill="#2A2A2A"/>
<path d="M20.8004 19.6998H15.2004C15.0004 19.6998 14.8004 19.4998 14.7004 19.2998C14.6004 19.0998 14.8004 18.7998 15.0004 18.6998C17.4004 17.4998 18.9004 15.1998 18.9004 12.4998C18.9004 9.7998 17.4004 7.4998 15.0004 6.2998C14.8004 6.1998 14.7004 5.9998 14.7004 5.6998C14.8004 5.4998 15.0004 5.2998 15.2004 5.2998H20.8004C22.3004 5.2998 23.5004 6.4998 23.5004 7.9998V16.9998C23.5004 18.4998 22.3004 19.6998 20.8004 19.6998ZM17.0004 18.6998H20.8004C21.8004 18.6998 22.5004 17.8998 22.5004 16.9998V8.0998C22.5004 7.0998 21.7004 6.3998 20.8004 6.3998H17.0004C18.8004 7.8998 19.9004 10.0998 19.9004 12.5998C19.9004 14.9998 18.8004 17.1998 17.0004 18.6998Z" fill="#2A2A2A"/>
<path d="M6.39961 6.4H2.59961C2.29961 6.4 2.09961 6.2 2.09961 5.9V4C2.09961 3.7 2.29961 3.5 2.59961 3.5H6.39961C6.69961 3.5 6.89961 3.7 6.89961 4V5.9C6.89961 6.2 6.59961 6.4 6.39961 6.4ZM3.09961 5.4H5.89961V4.5H3.09961V5.4Z" fill="#2A2A2A"/>
</svg>
